<?xml version="1.0" encoding="utf-8"?>
<!-- Generator: Adobe Illustrator 25.2.3, SVG Export Plug-In . SVG Version: 6.00 Build 0)  -->
<svg version="1.1" id="Capa_1" xmlns="http://www.w3.org/2000/svg" xmlns:xlink="http://www.w3.org/1999/xlink" x="0px" y="0px"
	 viewBox="0 0 91.2 79.6" style="enable-background:new 0 0 91.2 79.6;" xml:space="preserve">
<style type="text/css">
	.st0{fill:#FFFFFF;}
	.st1{fill:#0580B9;}
</style>
<g id="Capa_2_1_">
	<ellipse class="st0" cx="48.8" cy="21" rx="24.7" ry="14.8"/>
	<ellipse class="st0" cx="48.2" cy="45" rx="28" ry="26.8"/>
</g>
<g id="Capa_1_2_">
	<g id="Capa_1_1_">
		<g>
			<g>
				<path d="M49.4,71.5c-14.6,3.2-29.2-1.8-36-13.5C4.7,43,12,22.5,29.6,11.9v32.7c0,2.3,0.1,4.2,0.2,5.9l0,0
					c-0.2,1.4-0.2,7.1,2.8,12c3.1,5,7.5,7.1,13.4,8.7C47.1,71.6,48.3,71.5,49.4,71.5z"/>
				<path class="st1" d="M59.2,60.5c-6.1,3.5-13.5,2.2-16.5-2.9c-3-5.2-0.4-12.2,5.7-15.7s13.5-2.2,16.5,2.9S65.3,56.9,59.2,60.5z"
					/>
				<path class="st1" d="M72.8,57.9c2.8-4.7,3.8-10,2.7-15c-0.3-1.1-0.7-2.1-1.1-3.1c-0.4-0.8-0.8-1.6-1.2-2.4
					c-5.6-8.7-18.1-11-29-5.6c-0.5,0.3-1.1,0.5-1.6,0.9c-0.9,0.5-1.7,1-2.5,1.6V7.2c15.6-4.6,31.7,0.2,39,12.8
					C85.8,31.8,82.9,46.8,72.8,57.9z"/>
			</g>
		</g>
	</g>
</g>
</svg>
