<?xml version="1.0" encoding="utf-8"?>
<!-- Generator: Adobe Illustrator 25.2.3, SVG Export Plug-In . SVG Version: 6.00 Build 0)  -->
<svg version="1.1" id="Capa_1" xmlns="http://www.w3.org/2000/svg" xmlns:xlink="http://www.w3.org/1999/xlink" x="0px" y="0px"
	 viewBox="0 0 151.3 58.9" style="enable-background:new 0 0 151.3 58.9;" xml:space="preserve">
<style type="text/css">
	.st0{fill:#0580B9;}
	.st1{fill:#FFFFFF;}
</style>
<g>
	<g>
		<path class="st0" d="M9.2,1.1v11.6c1.6-1.2,3.3-1.9,5.2-1.9c1.2,0,2.3,0.2,3.4,0.7s2,1.1,2.8,2c0.8,0.8,1.4,1.8,1.9,2.9
			s0.7,2.3,0.7,3.5s-0.2,2.4-0.7,3.5s-1.1,2.1-2,2.9s-1.8,1.5-2.9,2S15.3,29,14.1,29c-1.5,0-3-0.4-4.3-1.1c-1.4-0.7-2.5-1.7-3.3-3
			C6.2,24.5,6,24,5.8,23.6s-0.3-0.9-0.4-1.4s-0.2-1.1-0.2-1.7s-0.1-1.4-0.1-2.3V1.1H9.2z M12,15.1c-0.6,0.2-1.1,0.6-1.6,1.1
			s-0.8,1-1.1,1.6S9,19.1,9,19.7c0,0.8,0.1,1.4,0.4,2.1c0.2,0.6,0.6,1.2,1.1,1.7s1,0.9,1.6,1.1s1.3,0.4,2,0.4s1.4-0.1,2-0.4
			s1.2-0.6,1.7-1.1s0.8-1,1.1-1.6s0.4-1.3,0.4-2s-0.1-1.4-0.4-2s-0.6-1.2-1.1-1.6c-0.5-0.5-1-0.8-1.6-1.1s-1.3-0.4-2-0.4
			C13.3,14.8,12.7,14.9,12,15.1z"/>
		<path class="st0" d="M43,23c-0.3,0.9-0.8,1.7-1.3,2.5c-0.6,0.7-1.2,1.3-1.9,1.9s-1.6,0.9-2.4,1.2c-0.9,0.3-1.8,0.4-2.7,0.4
			c-1.2,0-2.4-0.2-3.5-0.7c-1.1-0.5-2.1-1.1-2.9-2c-0.8-0.8-1.5-1.8-2-2.9s-0.7-2.3-0.7-3.5s0.2-2.4,0.7-3.5s1.1-2.1,1.9-2.9
			c0.8-0.8,1.8-1.5,2.9-2s2.3-0.7,3.5-0.7c1.3,0,2.5,0.2,3.6,0.7s2.1,1.2,3,2.1c0.7,0.7,1.2,1.5,1.6,2.4c0.4,0.9,0.6,1.7,0.6,2.4
			c0,1-0.4,1.9-1.2,2.5c-0.4,0.3-0.8,0.5-1.2,0.6s-1.1,0.1-2.1,0.1h-9c0.4,1,1,1.9,1.9,2.5s1.8,0.9,3,0.9c1.6,0,3-0.7,4.1-2H43
			L43,23z M39.3,18c-0.3-1-0.9-1.8-1.8-2.3c-0.9-0.6-1.8-0.9-2.9-0.9c-1.1,0-2,0.3-2.9,0.9S30.3,17,29.9,18H39.3z"/>
		<path class="st0" d="M46.7,28.7V1.1h4.1v27.6H46.7L46.7,28.7z"/>
		<path class="st0" d="M59.7,30.3c0.1,1.4,0.5,2.5,1.3,3.3s1.8,1.2,3,1.2c0.8,0,1.5-0.2,2.2-0.6c0.7-0.4,1.2-0.9,1.6-1.5
			c0.4-0.8,0.7-2,0.7-3.7v-1.8c-1.5,1.2-3.2,1.7-5.1,1.7c-1.2,0-2.4-0.2-3.5-0.7s-2.1-1.1-2.9-2c-0.8-0.8-1.5-1.8-1.9-2.9
			c-0.5-1.1-0.7-2.3-0.7-3.5s0.2-2.4,0.7-3.5s1.1-2.1,2-2.9c0.8-0.8,1.8-1.5,2.9-2c1.1-0.5,2.3-0.7,3.6-0.7c1.5,0,2.9,0.4,4.1,1.1
			c1.3,0.7,2.4,1.7,3.2,2.9c0.6,0.8,1,1.7,1.2,2.8c0.3,1.1,0.4,2.3,0.4,3.7v8c0,1.5-0.1,2.7-0.4,3.7c-0.3,0.9-0.7,1.8-1.4,2.7
			c-0.8,1-1.8,1.8-2.9,2.3c-1.2,0.6-2.4,0.8-3.7,0.8c-1.2,0-2.3-0.2-3.3-0.7c-1-0.4-1.9-1-2.6-1.8c-0.8-0.8-1.3-1.7-1.7-2.7
			s-0.6-2.2-0.6-3.4C55.7,30.3,59.7,30.3,59.7,30.3z M61.4,15.1c-0.6,0.2-1.2,0.6-1.6,1.1c-0.5,0.5-0.8,1-1.1,1.6s-0.4,1.3-0.4,2
			c0,0.8,0.1,1.4,0.4,2s0.6,1.2,1.1,1.6s1,0.8,1.6,1.1s1.3,0.4,2,0.4c0.7,0,1.4-0.1,2-0.4s1.2-0.6,1.6-1.1c0.5-0.4,0.8-1,1.1-1.6
			c0.3-0.6,0.4-1.2,0.4-1.9c0-0.8-0.1-1.4-0.4-2.1s-0.6-1.2-1.1-1.7s-1-0.8-1.6-1.1s-1.3-0.4-2-0.4C62.7,14.8,62,14.9,61.4,15.1z"/>
		<path class="st0" d="M76.6,28.7V18.3c0-2.4,0.6-4.3,1.8-5.6s2.9-1.9,5.2-1.9c0.1,0,0.2,0,0.4,0s0.4,0,0.6,0v3.9
			c-0.8,0.1-1.4,0.2-1.9,0.3c-0.5,0.2-0.9,0.4-1.2,0.8c-0.3,0.4-0.5,0.8-0.6,1.4c-0.1,0.5-0.2,1.3-0.2,2.1v9.3
			C80.7,28.7,76.6,28.7,76.6,28.7z"/>
		<path class="st0" d="M100.1,28.7v-1.6c-1.6,1.2-3.4,1.9-5.2,1.9c-1.2,0-2.4-0.2-3.4-0.7c-1.1-0.5-2-1.1-2.8-2s-1.4-1.8-1.9-2.9
			s-0.7-2.3-0.7-3.5s0.2-2.4,0.7-3.5s1.1-2.1,2-2.9s1.8-1.5,2.9-2s2.3-0.7,3.6-0.7c1.5,0,3,0.4,4.3,1.1s2.5,1.7,3.3,3
			c0.3,0.4,0.5,0.9,0.7,1.3c0.2,0.4,0.3,0.9,0.4,1.4s0.2,1.1,0.2,1.7s0.1,1.4,0.1,2.3v7.2L100.1,28.7L100.1,28.7z M93.2,15.2
			c-0.6,0.3-1.2,0.6-1.7,1.1c-0.5,0.5-0.8,1-1.1,1.6c-0.3,0.6-0.4,1.3-0.4,2s0.1,1.4,0.4,2s0.6,1.2,1.1,1.6s1,0.8,1.6,1.1
			c0.6,0.3,1.3,0.4,2,0.4s1.4-0.1,2-0.4s1.2-0.6,1.6-1.1c0.5-0.5,0.8-1,1.1-1.6c0.3-0.6,0.4-1.2,0.4-2s-0.1-1.4-0.4-2.1
			c-0.2-0.6-0.6-1.2-1.1-1.7s-1-0.9-1.6-1.1s-1.3-0.4-2-0.4C94.5,14.8,93.9,14.9,93.2,15.2z"/>
		<path class="st0" d="M118.9,28.7v-8.6c0-1-0.1-1.8-0.1-2.4c-0.1-0.6-0.3-1.1-0.5-1.5s-0.6-0.8-1.1-1.1s-1-0.4-1.6-0.4
			s-1.1,0.1-1.6,0.4s-0.9,0.6-1.2,1.1c-0.2,0.4-0.4,0.9-0.5,1.4s-0.1,1.3-0.1,2.3v8.9h-4.1v-10c0-1.1,0.1-2.1,0.4-2.9
			s0.7-1.6,1.3-2.3c0.7-0.9,1.5-1.6,2.6-2c1-0.5,2.1-0.7,3.3-0.7s2.2,0.2,3.2,0.7s1.9,1.1,2.6,2c0.6,0.8,1.1,1.5,1.3,2.3
			c0.2,0.8,0.4,1.9,0.4,3.2v9.7C123,28.7,118.9,28.7,118.9,28.7z"/>
		<path class="st0" d="M139.1,11.5c1.1,0.5,2.1,1.1,2.9,2c0.8,0.8,1.5,1.8,1.9,3s0.7,2.4,0.7,3.6s-0.2,2.4-0.7,3.4s-1.1,2-2,2.8
			c-0.8,0.8-1.8,1.4-2.9,1.9s-2.3,0.7-3.6,0.7c-1.2,0-2.4-0.2-3.5-0.7s-2.1-1.1-2.9-2s-1.5-1.8-2-2.9s-0.7-2.3-0.7-3.5
			c0-1.3,0.2-2.5,0.7-3.6s1.1-2.1,2-2.9s1.8-1.5,2.9-2c1.1-0.5,2.3-0.7,3.6-0.7C136.7,10.8,137.9,11,139.1,11.5z M133.5,15.2
			c-0.6,0.3-1.2,0.6-1.6,1.1c-0.4,0.5-0.8,1-1.1,1.6s-0.4,1.3-0.4,2s0.1,1.4,0.4,2s0.6,1.2,1.1,1.6c0.5,0.5,1,0.8,1.6,1.1
			s1.3,0.4,2,0.4s1.4-0.1,2-0.4s1.2-0.6,1.6-1.1c0.4-0.5,0.8-1,1.1-1.6s0.4-1.3,0.4-2s-0.1-1.4-0.4-2s-0.6-1.2-1.1-1.6
			c-0.5-0.5-1-0.8-1.6-1.1s-1.3-0.4-2-0.4C134.8,14.8,134.1,14.9,133.5,15.2z"/>
	</g>
	<g>
		<path class="st1" d="M5.7,50.1c-0.7-1-0.6-2.7,0-3.7c1-1.8,3.3-1.7,5-1.7h4.8c1.3,0,3.1,0.3,4,1.2c0.7,0.8,0.7,1.5,0.7,2.6h-1.8
			c-0.2-2.2-1.5-2-3.3-2h-3.8c-2,0-3.2-0.1-3.7,0.7c-0.3,0.4-0.3,1.5,0,2c0.7,1,2.2,0.8,4.3,0.8h3.4c1.7,0,4,0,5,1.7
			c0.5,1,0.6,2.6,0,3.7c-1.1,1.8-3.6,1.7-4.8,1.7H10c-1.7,0-3.3,0-4.3-1.5c-0.5-0.7-0.5-1.4-0.5-2.8H7c0,0.9,0.1,1.6,0.5,2
			c0.5,0.5,1,0.6,2.7,0.6H14c2.1,0,3.7,0.1,4.3-0.8c0.3-0.5,0.3-1.6,0-2c-0.5-0.8-1.8-0.7-3.7-0.7h-4.2C9.3,51.7,6.8,51.8,5.7,50.1z
			"/>
		<path class="st1" d="M40.6,54.1c-0.5,1.5-1.9,2.9-4.4,2.9h-7.1c-2.4,0-3.9-1.4-4.4-2.9c-0.2-0.5-0.3-1.4-0.3-2.5v-1.5
			c0-1.1,0.1-2,0.3-2.5c0.5-1.5,1.9-2.9,4.4-2.9h7.1c2.4,0,3.9,1.4,4.4,2.9c0.2,0.5,0.3,1.4,0.3,2.5v1.5
			C40.8,52.7,40.8,53.6,40.6,54.1z M38.5,48.1c-0.5-1.3-1.5-1.7-2.9-1.7h-6c-1.4,0-2.4,0.3-2.9,1.7c-0.1,0.4-0.2,1.1-0.2,2v1.5
			c0,0.9,0.1,1.7,0.2,2c0.5,1.3,1.5,1.7,2.9,1.7h6c1.4,0,2.4-0.3,2.9-1.7c0.1-0.4,0.2-1.1,0.2-2v-1.5C38.8,49.2,38.7,48.4,38.5,48.1
			z"/>
		<path class="st1" d="M52.8,40.9h-1.9c-1.9,0-2.9-0.1-3.6,0.6c-0.5,0.5-0.5,2.4-0.5,3.1h6v1.8h-6v10.7h-2V46.4h-2.7v-1.8h2.7
			c0-1.3-0.2-3.1,1.1-4.3c1.2-1.2,3.1-1.1,4.7-1.1h2.2V40.9L52.8,40.9z"/>
		<path class="st1" d="M57.2,41.7v3h8.4v1.8h-8.4V51c0,2.1-0.1,3.4,1.1,4.1c0.6,0.4,4.4,0.3,4.9,0c1.2-0.7,1.1-2.9,1.1-3.8h1.6
			c-0.1,1.5,0.4,4.1-1.6,5.3c-1.3,0.8-5.9,0.7-7.3-0.1c-2-1.1-1.8-3.3-1.8-5v-5h-2.6v-1.8h2.6v-3C55.1,41.7,57.2,41.7,57.2,41.7z"/>
		<path class="st1" d="M70,44.6l5,10.8l3.9-10.8h3L86,55.3l4.8-10.7h2.1L87.4,57h-2.9l-4-10.7L76.6,57h-2.9l-5.9-12.4H70z"/>
		<path class="st1" d="M106.2,57.1v-1.3c-1.1,1.3-2.2,1.3-3.5,1.3h-4.6c-1.9,0-4.1,0.2-5.1-1.4c-0.4-0.7-0.6-3.5,0-4.4
			c1-1.6,3-1.4,5.2-1.4h4.4c1.2,0,2.6,0.2,3.6,1.3c0-1.8,0.1-3.1-0.7-3.9c-0.8-0.8-2.2-0.8-4.1-0.8H99c-1.8,0-2.8-0.1-3.5,0.9
			c-0.2,0.3-0.2,1.2-0.2,1.2h-2.1c0-0.9,0-2,0.8-2.8c1-1,2.2-1,4.2-1h3.1c2.3,0,4.4-0.1,5.8,1.4c1.2,1.2,1.1,2.8,1.1,5v6L106.2,57.1
			L106.2,57.1z M94.9,54.6c0.6,1.1,2.3,1,4.2,1h2.5c0.8,0,3.7,0,4.4-1.1c0.3-0.4,0.2-1.6,0-2c-0.7-1.3-1.8-1.2-4.4-1.2h-2.7
			c-2,0-2.4,0.1-2.6,0.1c-0.6,0.1-0.9,0.4-1.2,0.8C94.6,52.8,94.7,54.1,94.9,54.6z"/>
		<path class="st1" d="M123.1,50.5c0-0.7,0.2-2.9-1.2-3.7c-1.1-0.6-5.4-0.6-6.6,0.1c-1.5,0.9-1.3,3-1.3,4.3V57h-2V44.6h2v2
			c1.7-2.3,5.3-1.9,6.5-1.9c1.1,0,3.1,0.2,4,1.8c0.6,1,0.5,3.2,0.5,4L123.1,50.5L123.1,50.5z"/>
		<path class="st1" d="M130.6,51.5c0,0.9,0,2,0.9,2.9c1,1,2.4,0.9,3,0.9h3.9c2.2,0,3.6,0.2,4.1-2.2h2c-0.2,3.5-2.2,3.9-5.5,3.9h-3.4
			c-1.9,0-5,0.2-6.4-2.3c-0.9-1.6-1-6.2-0.1-7.8c1.4-2.4,4.1-2.3,5.9-2.3h2.7c0.7,0,4.4-0.2,5.9,2.2c0.7,1.1,0.8,3.3,0.7,4.7
			L130.6,51.5L130.6,51.5z M131.9,46.9c-1.2,0.7-1.3,2-1.3,2.9h11.7c0-1.1,0.2-2-1.1-2.8C139.8,46.3,133.2,46.2,131.9,46.9z"/>
	</g>
</g>
</svg>
